# Blender v2.82 (sub 7) OBJ File: ''
# www.blender.org
mtllib skin.mtl
o body
v 3.995187 23.971123 1.997598
v 3.995187 11.985561 1.997596
v 3.995187 23.971123 -1.997590
v 3.995187 11.985561 -1.997592
v -3.995187 23.971123 -1.997590
v -3.995187 11.985561 -1.997592
v -3.995187 23.971123 1.997598
v -3.995187 11.985561 1.997596
vt 0.125122 0.843628
vt 0.125122 0.750122
vt 0.156128 0.843628
vt 0.156128 0.750122
vt 0.218872 0.843628
vt 0.218872 0.750122
vt 0.249878 0.843628
vt 0.249878 0.750122
vt 0.218628 0.843872
vt 0.218628 0.874878
vt 0.156372 0.843872
vt 0.156372 0.874878
vt 0.281128 0.874878
vt 0.281128 0.843872
vt 0.218872 0.874878
vt 0.218872 0.843872
vt 0.250122 0.843628
vt 0.250122 0.750122
vt 0.312378 0.843628
vt 0.312378 0.750122
vt 0.156372 0.843628
vt 0.156372 0.750122
vt 0.218628 0.843628
vt 0.218628 0.750122
vn 1.0000 0.0000 0.0000
vn -1.0000 0.0000 0.0000
vn 0.0000 1.0000 0.0000
vn 0.0000 -1.0000 0.0000
vn 0.0000 -0.0000 1.0000
vn 0.0000 0.0000 -1.0000
usemtl none.001
s 1
f 1/1/1 2/2/1 3/3/1
f 2/2/1 4/4/1 3/3/1
f 5/5/2 6/6/2 7/7/2
f 6/6/2 8/8/2 7/7/2
f 5/9/3 7/10/3 3/11/3
f 7/10/3 1/12/3 3/11/3
f 8/13/4 6/14/4 2/15/4
f 6/14/4 4/16/4 2/15/4
f 7/17/5 8/18/5 1/19/5
f 8/18/5 2/20/5 1/19/5
f 3/21/6 4/22/6 5/23/6
f 4/22/6 6/24/6 5/23/6
o head
v 3.995187 31.961498 3.995193
v 3.995187 23.971123 3.995191
v 3.995187 31.961498 -3.995182
v 3.995187 23.971123 -3.995183
v -3.995187 31.961498 -3.995182
v -3.995187 23.971123 -3.995183
v -3.995187 31.961498 3.995193
v -3.995187 23.971123 3.995191
vt 0.000122 0.937378
vt 0.000122 0.875122
vt 0.062378 0.937378
vt 0.062378 0.875122
vt 0.125122 0.937378
vt 0.125122 0.875122
vt 0.187378 0.937378
vt 0.187378 0.875122
vt 0.124878 0.937622
vt 0.124878 0.999878
vt 0.062622 0.937622
vt 0.062622 0.999878
vt 0.187378 0.999878
vt 0.187378 0.937622
vt 0.125122 0.999878
vt 0.125122 0.937622
vt 0.187622 0.937378
vt 0.187622 0.875122
vt 0.249878 0.937378
vt 0.249878 0.875122
vt 0.062622 0.937378
vt 0.062622 0.875122
vt 0.124878 0.937378
vt 0.124878 0.875122
vn 1.0000 0.0000 0.0000
vn -1.0000 0.0000 0.0000
vn 0.0000 1.0000 0.0000
vn 0.0000 -1.0000 0.0000
vn 0.0000 -0.0000 1.0000
vn 0.0000 0.0000 -1.0000
usemtl none.001
s 1
f 9/25/7 10/26/7 11/27/7
f 10/26/7 12/28/7 11/27/7
f 13/29/8 14/30/8 15/31/8
f 14/30/8 16/32/8 15/31/8
f 13/33/9 15/34/9 11/35/9
f 15/34/9 9/36/9 11/35/9
f 16/37/10 14/38/10 10/39/10
f 14/38/10 12/40/10 10/39/10
f 15/41/11 16/42/11 9/43/11
f 16/42/11 10/44/11 9/43/11
f 11/45/12 12/46/12 13/47/12
f 12/46/12 14/48/12 13/47/12
o hat
v 4.494586 32.460896 4.494591
v 4.494586 23.471725 4.494589
v 4.494586 32.460896 -4.494580
v 4.494586 23.471725 -4.494582
v -4.494586 32.460896 -4.494580
v -4.494586 23.471725 -4.494582
v -4.494586 32.460896 4.494591
v -4.494586 23.471725 4.494589
vt 0.250122 0.937378
vt 0.250122 0.875122
vt 0.312378 0.937378
vt 0.312378 0.875122
vt 0.375122 0.937378
vt 0.375122 0.875122
vt 0.437378 0.937378
vt 0.437378 0.875122
vt 0.374878 0.937622
vt 0.374878 0.999878
vt 0.312622 0.937622
vt 0.312622 0.999878
vt 0.437378 0.999878
vt 0.437378 0.937622
vt 0.375122 0.999878
vt 0.375122 0.937622
vt 0.437622 0.937378
vt 0.437622 0.875122
vt 0.499878 0.937378
vt 0.499878 0.875122
vt 0.312622 0.937378
vt 0.312622 0.875122
vt 0.374878 0.937378
vt 0.374878 0.875122
vn 1.0000 0.0000 0.0000
vn -1.0000 -0.0000 0.0000
vn 0.0000 1.0000 0.0000
vn 0.0000 -1.0000 0.0000
vn 0.0000 -0.0000 1.0000
vn 0.0000 0.0000 -1.0000
usemtl none.001
s 1
f 17/49/13 18/50/13 19/51/13
f 18/50/13 20/52/13 19/51/13
f 21/53/14 22/54/14 23/55/14
f 22/54/14 24/56/14 23/55/14
f 21/57/15 23/58/15 19/59/15
f 23/58/15 17/60/15 19/59/15
f 24/61/16 22/62/16 18/63/16
f 22/62/16 20/64/16 18/63/16
f 23/65/17 24/66/17 17/67/17
f 24/66/17 18/68/17 17/67/17
f 19/69/18 20/70/18 21/71/18
f 20/70/18 22/72/18 21/71/18
o cape
v -4.993984 23.827061 3.692022
v -4.993984 8.902120 4.997782
v -4.993984 23.740011 2.697026
v -4.993984 8.815068 4.002786
v 4.993984 23.740011 2.697026
v 4.993984 8.815068 4.002786
v 4.993984 23.827061 3.692022
v 4.993984 8.902120 4.997782
vt 0.000122 0.328003
vt 0.000122 -0.023315
vt 0.226440 0.328003
vt 0.226440 -0.023315
vt 0.539185 0.328003
vt 0.539185 -0.023315
vt 0.765503 0.328003
vt 0.765503 -0.023315
vt 0.538940 0.328247
vt 0.538940 0.554565
vt 0.226685 0.328247
vt 0.226685 0.554565
vt 0.851440 0.554565
vt 0.851440 0.328247
vt 0.539185 0.554565
vt 0.539185 0.328247
vt 0.765747 0.328003
vt 0.765747 -0.023315
vt 1.078003 0.328003
vt 1.078003 -0.023315
vt 0.226685 0.328003
vt 0.226685 -0.023315
vt 0.538940 0.328003
vt 0.538940 -0.023315
vn -1.0000 -0.0000 0.0000
vn 1.0000 0.0000 -0.0000
vn 1.0000 0.0003 -0.0000
vn -0.0000 0.9962 -0.0872
vn 0.0000 -0.9962 0.0871
vn 0.0000 -0.0872 -0.9962
vn 0.0000 0.0872 0.9962
usemtl none.001
s 1
f 25/73/19 26/74/19 27/75/19
f 26/74/19 28/76/19 27/75/19
f 29/77/20 30/78/20 31/79/21
f 30/78/20 32/80/20 31/79/21
f 29/81/22 31/82/22 27/83/22
f 31/82/22 25/84/22 27/83/22
f 32/85/23 30/86/23 26/87/23
f 30/86/23 28/88/23 26/87/23
f 31/89/24 32/90/24 25/91/24
f 32/90/24 26/92/24 25/91/24
f 27/93/25 28/94/25 29/95/25
f 28/94/25 30/96/25 29/95/25
o leftArm
v -3.995187 23.971123 1.997598
v -3.995187 11.985561 1.997596
v -3.995187 23.971123 -1.997590
v -3.995187 11.985561 -1.997592
v -7.990375 23.971123 -1.997590
v -7.990375 11.985561 -1.997592
v -7.990375 23.971123 1.997598
v -7.990375 11.985561 1.997596
vt 0.250122 0.593628
vt 0.250122 0.500122
vt 0.281128 0.593628
vt 0.281128 0.500122
vt 0.312622 0.593628
vt 0.312622 0.500122
vt 0.343628 0.593628
vt 0.343628 0.500122
vt 0.312378 0.593872
vt 0.312378 0.624878
vt 0.281372 0.593872
vt 0.281372 0.624878
vt 0.343628 0.624878
vt 0.343628 0.593872
vt 0.312622 0.624878
vt 0.312622 0.593872
vt 0.343872 0.593628
vt 0.343872 0.500122
vt 0.374878 0.593628
vt 0.374878 0.500122
vt 0.281372 0.593628
vt 0.281372 0.500122
vt 0.312378 0.593628
vt 0.312378 0.500122
vn 1.0000 0.0000 0.0000
vn -1.0000 0.0000 0.0000
vn 0.0000 1.0000 0.0000
vn 0.0000 -1.0000 0.0000
vn 0.0000 -0.0000 1.0000
vn 0.0000 0.0000 -1.0000
usemtl none.001
s 1
f 33/97/26 34/98/26 35/99/26
f 34/98/26 36/100/26 35/99/26
f 37/101/27 38/102/27 39/103/27
f 38/102/27 40/104/27 39/103/27
f 37/105/28 39/106/28 35/107/28
f 39/106/28 33/108/28 35/107/28
f 40/109/29 38/110/29 34/111/29
f 38/110/29 36/112/29 34/111/29
f 39/113/30 40/114/30 33/115/30
f 40/114/30 34/116/30 33/115/30
f 35/117/31 36/118/31 37/119/31
f 36/118/31 38/120/31 37/119/31
o leftSleeve
v -3.745488 24.220823 2.247297
v -3.745488 11.735863 2.247295
v -3.745488 24.220823 -2.247289
v -3.745488 11.735863 -2.247291
v -8.240074 24.220823 -2.247289
v -8.240074 11.735863 -2.247291
v -8.240074 24.220823 2.247297
v -8.240074 11.735863 2.247295
vt 0.375122 0.593628
vt 0.375122 0.500122
vt 0.406128 0.593628
vt 0.406128 0.500122
vt 0.437622 0.593628
vt 0.437622 0.500122
vt 0.468628 0.593628
vt 0.468628 0.500122
vt 0.437378 0.593872
vt 0.437378 0.624878
vt 0.406372 0.593872
vt 0.406372 0.624878
vt 0.468628 0.624878
vt 0.468628 0.593872
vt 0.437622 0.624878
vt 0.437622 0.593872
vt 0.468872 0.593628
vt 0.468872 0.500122
vt 0.499878 0.593628
vt 0.499878 0.500122
vt 0.406372 0.593628
vt 0.406372 0.500122
vt 0.437378 0.593628
vt 0.437378 0.500122
vn 1.0000 0.0000 0.0000
vn -1.0000 0.0000 0.0000
vn 0.0000 1.0000 0.0000
vn 0.0000 -1.0000 0.0000
vn 0.0000 -0.0000 1.0000
vn 0.0000 0.0000 -1.0000
usemtl none.001
s 1
f 41/121/32 42/122/32 43/123/32
f 42/122/32 44/124/32 43/123/32
f 45/125/33 46/126/33 47/127/33
f 46/126/33 48/128/33 47/127/33
f 45/129/34 47/130/34 43/131/34
f 47/130/34 41/132/34 43/131/34
f 48/133/35 46/134/35 42/135/35
f 46/134/35 44/136/35 42/135/35
f 47/137/36 48/138/36 41/139/36
f 48/138/36 42/140/36 41/139/36
f 43/141/37 44/142/37 45/143/37
f 44/142/37 46/144/37 45/143/37
o rightArm
v 7.990375 23.971123 1.997598
v 7.990375 11.985561 1.997596
v 7.990375 23.971123 -1.997590
v 7.990375 11.985561 -1.997592
v 3.995187 23.971123 -1.997590
v 3.995187 11.985561 -1.997592
v 3.995187 23.971123 1.997598
v 3.995187 11.985561 1.997596
vt 0.312622 0.843628
vt 0.312622 0.750122
vt 0.343628 0.843628
vt 0.343628 0.750122
vt 0.375122 0.843628
vt 0.375122 0.750122
vt 0.406128 0.843628
vt 0.406128 0.750122
vt 0.374878 0.843872
vt 0.374878 0.874878
vt 0.343872 0.843872
vt 0.343872 0.874878
vt 0.406128 0.874878
vt 0.406128 0.843872
vt 0.375122 0.874878
vt 0.375122 0.843872
vt 0.406372 0.843628
vt 0.406372 0.750122
vt 0.437378 0.843628
vt 0.437378 0.750122
vt 0.343872 0.843628
vt 0.343872 0.750122
vt 0.374878 0.843628
vt 0.374878 0.750122
vn 1.0000 0.0000 0.0000
vn -1.0000 0.0000 0.0000
vn 0.0000 1.0000 0.0000
vn 0.0000 -1.0000 0.0000
vn 0.0000 -0.0000 1.0000
vn 0.0000 0.0000 -1.0000
usemtl none.001
s 1
f 49/145/38 50/146/38 51/147/38
f 50/146/38 52/148/38 51/147/38
f 53/149/39 54/150/39 55/151/39
f 54/150/39 56/152/39 55/151/39
f 53/153/40 55/154/40 51/155/40
f 55/154/40 49/156/40 51/155/40
f 56/157/41 54/158/41 50/159/41
f 54/158/41 52/160/41 50/159/41
f 55/161/42 56/162/42 49/163/42
f 56/162/42 50/164/42 49/163/42
f 51/165/43 52/166/43 53/167/43
f 52/166/43 54/168/43 53/167/43
o rightSleeve
v 8.240074 24.220823 2.247297
v 8.240074 11.735863 2.247295
v 8.240074 24.220823 -2.247289
v 8.240074 11.735863 -2.247291
v 3.745488 24.220823 -2.247289
v 3.745488 11.735863 -2.247291
v 3.745488 24.220823 2.247297
v 3.745488 11.735863 2.247295
vt 0.312622 0.718628
vt 0.312622 0.625122
vt 0.343628 0.718628
vt 0.343628 0.625122
vt 0.375122 0.718628
vt 0.375122 0.625122
vt 0.406128 0.718628
vt 0.406128 0.625122
vt 0.374878 0.718872
vt 0.374878 0.749878
vt 0.343872 0.718872
vt 0.343872 0.749878
vt 0.406128 0.749878
vt 0.406128 0.718872
vt 0.375122 0.749878
vt 0.375122 0.718872
vt 0.406372 0.718628
vt 0.406372 0.625122
vt 0.437378 0.718628
vt 0.437378 0.625122
vt 0.343872 0.718628
vt 0.343872 0.625122
vt 0.374878 0.718628
vt 0.374878 0.625122
vn 1.0000 0.0000 0.0000
vn -1.0000 0.0000 0.0000
vn 0.0000 1.0000 0.0000
vn 0.0000 -1.0000 0.0000
vn 0.0000 -0.0000 1.0000
vn 0.0000 0.0000 -1.0000
usemtl none.001
s 1
f 57/169/44 58/170/44 59/171/44
f 58/170/44 60/172/44 59/171/44
f 61/173/45 62/174/45 63/175/45
f 62/174/45 64/176/45 63/175/45
f 61/177/46 63/178/46 59/179/46
f 63/178/46 57/180/46 59/179/46
f 64/181/47 62/182/47 58/183/47
f 62/182/47 60/184/47 58/183/47
f 63/185/48 64/186/48 57/187/48
f 64/186/48 58/188/48 57/187/48
f 59/189/49 60/190/49 61/191/49
f 60/190/49 62/192/49 61/191/49
o jacket
v 4.244886 24.220823 2.247297
v 4.244886 11.735863 2.247295
v 4.244886 24.220823 -2.247289
v 4.244886 11.735863 -2.247291
v -4.244886 24.220823 -2.247289
v -4.244886 11.735863 -2.247291
v -4.244886 24.220823 2.247297
v -4.244886 11.735863 2.247295
vt 0.125122 0.718628
vt 0.125122 0.625122
vt 0.156128 0.718628
vt 0.156128 0.625122
vt 0.218872 0.718628
vt 0.218872 0.625122
vt 0.249878 0.718628
vt 0.249878 0.625122
vt 0.218628 0.718872
vt 0.218628 0.749878
vt 0.156372 0.718872
vt 0.156372 0.749878
vt 0.281128 0.749878
vt 0.281128 0.718872
vt 0.218872 0.749878
vt 0.218872 0.718872
vt 0.250122 0.718628
vt 0.250122 0.625122
vt 0.312378 0.718628
vt 0.312378 0.625122
vt 0.156372 0.718628
vt 0.156372 0.625122
vt 0.218628 0.718628
vt 0.218628 0.625122
vn 1.0000 0.0000 0.0000
vn -1.0000 0.0000 0.0000
vn 0.0000 1.0000 0.0000
vn 0.0000 -1.0000 0.0000
vn 0.0000 -0.0000 1.0000
vn 0.0000 0.0000 -1.0000
usemtl none.001
s 1
f 65/193/50 66/194/50 67/195/50
f 66/194/50 68/196/50 67/195/50
f 69/197/51 70/198/51 71/199/51
f 70/198/51 72/200/51 71/199/51
f 69/201/52 71/202/52 67/203/52
f 71/202/52 65/204/52 67/203/52
f 72/205/53 70/206/53 66/207/53
f 70/206/53 68/208/53 66/207/53
f 71/209/54 72/210/54 65/211/54
f 72/210/54 66/212/54 65/211/54
f 67/213/55 68/214/55 69/215/55
f 68/214/55 70/216/55 69/215/55
o leftLeg
v 0.099880 11.985561 1.997596
v 0.099880 -0.000000 1.997594
v 0.099880 11.985561 -1.997592
v 0.099880 0.000000 -1.997594
v -3.895308 11.985561 -1.997592
v -3.895308 0.000000 -1.997594
v -3.895308 11.985561 1.997596
v -3.895308 -0.000000 1.997594
vt 0.125122 0.593628
vt 0.125122 0.500122
vt 0.156128 0.593628
vt 0.156128 0.500122
vt 0.187622 0.593628
vt 0.187622 0.500122
vt 0.218628 0.593628
vt 0.218628 0.500122
vt 0.187378 0.593872
vt 0.187378 0.624878
vt 0.156372 0.593872
vt 0.156372 0.624878
vt 0.218628 0.624878
vt 0.218628 0.593872
vt 0.187622 0.624878
vt 0.187622 0.593872
vt 0.218872 0.593628
vt 0.218872 0.500122
vt 0.249878 0.593628
vt 0.249878 0.500122
vt 0.156372 0.593628
vt 0.156372 0.500122
vt 0.187378 0.593628
vt 0.187378 0.500122
vn 1.0000 -0.0000 0.0000
vn -1.0000 0.0000 0.0000
vn 0.0000 1.0000 0.0000
vn 0.0000 -1.0000 -0.0000
vn 0.0000 -0.0000 1.0000
vn 0.0000 0.0000 -1.0000
usemtl none.001
s 1
f 73/217/56 74/218/56 75/219/56
f 74/218/56 76/220/56 75/219/56
f 77/221/57 78/222/57 79/223/57
f 78/222/57 80/224/57 79/223/57
f 77/225/58 79/226/58 75/227/58
f 79/226/58 73/228/58 75/227/58
f 80/229/59 78/230/59 74/231/59
f 78/230/59 76/232/59 74/231/59
f 79/233/60 80/234/60 73/235/60
f 80/234/60 74/236/60 73/235/60
f 75/237/61 76/238/61 77/239/61
f 76/238/61 78/240/61 77/239/61
o leftPants
v 0.349579 12.235261 2.247295
v 0.349579 -0.249700 2.247293
v 0.349579 12.235261 -2.247291
v 0.349579 -0.249699 -2.247293
v -4.145007 12.235261 -2.247291
v -4.145007 -0.249699 -2.247293
v -4.145007 12.235261 2.247295
v -4.145007 -0.249700 2.247293
vt 0.000122 0.593628
vt 0.000122 0.500122
vt 0.031128 0.593628
vt 0.031128 0.500122
vt 0.062622 0.593628
vt 0.062622 0.500122
vt 0.093628 0.593628
vt 0.093628 0.500122
vt 0.062378 0.593872
vt 0.062378 0.624878
vt 0.031372 0.593872
vt 0.031372 0.624878
vt 0.093628 0.624878
vt 0.093628 0.593872
vt 0.062622 0.624878
vt 0.062622 0.593872
vt 0.093872 0.593628
vt 0.093872 0.500122
vt 0.124878 0.593628
vt 0.124878 0.500122
vt 0.031372 0.593628
vt 0.031372 0.500122
vt 0.062378 0.593628
vt 0.062378 0.500122
vn 1.0000 0.0000 0.0000
vn -1.0000 0.0000 0.0000
vn 0.0000 1.0000 0.0000
vn 0.0000 -1.0000 -0.0000
vn 0.0000 -0.0000 1.0000
vn 0.0000 0.0000 -1.0000
usemtl none.001
s 1
f 81/241/62 82/242/62 83/243/62
f 82/242/62 84/244/62 83/243/62
f 85/245/63 86/246/63 87/247/63
f 86/246/63 88/248/63 87/247/63
f 85/249/64 87/250/64 83/251/64
f 87/250/64 81/252/64 83/251/64
f 88/253/65 86/254/65 82/255/65
f 86/254/65 84/256/65 82/255/65
f 87/257/66 88/258/66 81/259/66
f 88/258/66 82/260/66 81/259/66
f 83/261/67 84/262/67 85/263/67
f 84/262/67 86/264/67 85/263/67
o rightLeg
v 3.895308 11.985561 1.997596
v 3.895308 -0.000000 1.997594
v 3.895308 11.985561 -1.997592
v 3.895308 0.000000 -1.997594
v -0.099880 11.985561 -1.997592
v -0.099880 0.000000 -1.997594
v -0.099880 11.985561 1.997596
v -0.099880 -0.000000 1.997594
vt 0.000122 0.843628
vt 0.000122 0.750122
vt 0.031128 0.843628
vt 0.031128 0.750122
vt 0.062622 0.843628
vt 0.062622 0.750122
vt 0.093628 0.843628
vt 0.093628 0.750122
vt 0.062378 0.843872
vt 0.062378 0.874878
vt 0.031372 0.843872
vt 0.031372 0.874878
vt 0.093628 0.874878
vt 0.093628 0.843872
vt 0.062622 0.874878
vt 0.062622 0.843872
vt 0.093872 0.843628
vt 0.093872 0.750122
vt 0.124878 0.843628
vt 0.124878 0.750122
vt 0.031372 0.843628
vt 0.031372 0.750122
vt 0.062378 0.843628
vt 0.062378 0.750122
vn 1.0000 0.0000 0.0000
vn -1.0000 0.0000 0.0000
vn 0.0000 1.0000 0.0000
vn 0.0000 -1.0000 -0.0000
vn 0.0000 -0.0000 1.0000
vn 0.0000 0.0000 -1.0000
usemtl none.001
s 1
f 89/265/68 90/266/68 91/267/68
f 90/266/68 92/268/68 91/267/68
f 93/269/69 94/270/69 95/271/69
f 94/270/69 96/272/69 95/271/69
f 93/273/70 95/274/70 91/275/70
f 95/274/70 89/276/70 91/275/70
f 96/277/71 94/278/71 90/279/71
f 94/278/71 92/280/71 90/279/71
f 95/281/72 96/282/72 89/283/72
f 96/282/72 90/284/72 89/283/72
f 91/285/73 92/286/73 93/287/73
f 92/286/73 94/288/73 93/287/73
o rightPants
v 4.145007 12.235261 2.247295
v 4.145007 -0.249700 2.247293
v 4.145007 12.235261 -2.247291
v 4.145007 -0.249699 -2.247293
v -0.349579 12.235261 -2.247291
v -0.349579 -0.249699 -2.247293
v -0.349579 12.235261 2.247295
v -0.349579 -0.249700 2.247293
vt 0.000122 0.718628
vt 0.000122 0.625122
vt 0.031128 0.718628
vt 0.031128 0.625122
vt 0.062622 0.718628
vt 0.062622 0.625122
vt 0.093628 0.718628
vt 0.093628 0.625122
vt 0.062378 0.718872
vt 0.062378 0.749878
vt 0.031372 0.718872
vt 0.031372 0.749878
vt 0.093628 0.749878
vt 0.093628 0.718872
vt 0.062622 0.749878
vt 0.062622 0.718872
vt 0.093872 0.718628
vt 0.093872 0.625122
vt 0.124878 0.718628
vt 0.124878 0.625122
vt 0.031372 0.718628
vt 0.031372 0.625122
vt 0.062378 0.718628
vt 0.062378 0.625122
vn 1.0000 0.0000 0.0000
vn -1.0000 0.0000 0.0000
vn 0.0000 1.0000 0.0000
vn 0.0000 -1.0000 -0.0000
vn 0.0000 -0.0000 1.0000
vn 0.0000 0.0000 -1.0000
usemtl none.001
s 1
f 97/289/74 98/290/74 99/291/74
f 98/290/74 100/292/74 99/291/74
f 101/293/75 102/294/75 103/295/75
f 102/294/75 104/296/75 103/295/75
f 101/297/76 103/298/76 99/299/76
f 103/298/76 97/300/76 99/299/76
f 104/301/77 102/302/77 98/303/77
f 102/302/77 100/304/77 98/303/77
f 103/305/78 104/306/78 97/307/78
f 104/306/78 98/308/78 97/307/78
f 99/309/79 100/310/79 101/311/79
f 100/310/79 102/312/79 101/311/79
